
<svg version="1.1" xmlns="http://www.w3.org/2000/svg" xmlns:xlink="http://www.w3.org/1999/xlink" x="0px" y="0px"
	 viewBox="0 0 20.328 11.412" style="enable-background:new 0 0 20.328 11.412;" xml:space="preserve">
<g id="Kose">
	<path d="M12.609,0.195c0.505-0.208,1.08-0.259,1.607-0.105c0.066,0.029,0.135,0.052,0.202,0.08c0.73,0.288,1.336,0.804,1.915,1.32
		c0.614,0.574,1.192,1.186,1.8,1.767c0.635,0.614,1.25,1.256,1.73,2c0.094,0.175,0.188,0.349,0.268,0.531
		c0.218,0.506,0.26,1.078,0.104,1.607c-0.028,0.069-0.051,0.139-0.078,0.207c-0.056,0.173-0.153,0.327-0.241,0.484
		c-0.037,0.053-0.073,0.108-0.107,0.162c-0.26,0.358-0.556,0.686-0.876,0.991c-0.639,0.604-1.204,1.299-1.947,1.782
		c-0.171,0.108-0.355,0.188-0.54,0.266c-0.129,0.042-0.266,0.06-0.391,0.113c-0.422,0.016-0.855,0.041-1.257-0.113
		c-0.123-0.058-0.253-0.102-0.376-0.16c-0.106-0.06-0.213-0.119-0.314-0.186c-0.385-0.218-0.711-0.521-1.05-0.799
		c-0.749-0.704-1.464-1.444-2.192-2.171c-0.617-0.652-1.234-1.323-1.665-2.117C9.022,5.493,8.892,5.106,8.863,4.706
		C8.892,4.31,8.973,3.913,9.145,3.554C9.214,3.428,9.28,3.301,9.359,3.182c0.228-0.352,0.523-0.651,0.815-0.949
		c0.645-0.61,1.216-1.315,1.97-1.798C12.29,0.338,12.45,0.265,12.609,0.195z"/>
	<path d="M2.262,0.292c0.633-0.14,1.286-0.08,1.928-0.091c0.563,0.011,1.13-0.034,1.69,0.039c0.838,0.077,1.68,0.527,2.068,1.297
		c0.014,0.027,0.041,0.08,0.055,0.107c0.027,0.073,0.054,0.146,0.08,0.22c0.169,0.449,0.228,0.927,0.304,1.397
		C8.376,3.494,8.408,3.723,8.439,3.953C8.446,4.859,8.438,5.764,8.442,6.67c0.032,0.374,0.022,0.75,0.007,1.124
		C8.405,8.308,8.379,8.83,8.222,9.326c-0.191,0.79-0.757,1.49-1.529,1.771c-0.306,0.121-0.633,0.167-0.956,0.21
		C5.026,11.35,4.312,11.316,3.6,11.326c-0.302,0.011-0.602-0.039-0.904-0.027C2.321,11.257,1.944,11.182,1.6,11.02
		c-0.466-0.213-0.868-0.57-1.098-1.031C0.477,9.939,0.45,9.891,0.422,9.843c-0.03-0.092-0.063-0.182-0.104-0.269
		c-0.013-0.055-0.03-0.109-0.052-0.16C0.253,9.357,0.235,9.303,0.211,9.251c-0.078-0.324-0.109-0.655-0.171-0.98
		c0.003-0.196-0.006-0.391-0.03-0.585c-0.021-0.924,0.003-1.848-0.004-2.772c-0.007-0.571,0.026-1.141,0.083-1.709
		c0.085-0.672,0.217-1.369,0.601-1.941C1.059,0.749,1.645,0.415,2.262,0.292z"/>
</g>
<g id="Layer_1">
</g>
</svg>
